<?xml version="1.0" encoding="UTF-8"?>
<svg xmlns="http://www.w3.org/2000/svg" width="156" height="79" viewBox="0 0 156 79" fill="none">
  <path d="M0 78.1297C0.954676 77.8906 1.59725 77.363 1.92771 76.5423C2.25818 75.7238 2.41423 73.6945 2.41423 70.4363V58.8016C2.41423 57.8816 2.25818 57.1804 1.92771 56.7204C1.59725 56.2627 1.09466 55.9899 0.399312 55.9042V55.6313C0.816982 55.6494 1.42283 55.6494 2.23982 55.6494C3.0568 55.6674 4.68847 55.6674 7.15318 55.6674H11.8049C15.7453 55.6674 18.6116 56.0936 20.3993 56.9459C22.187 57.8162 23.0729 59.1804 23.0729 61.0406C23.0729 62.7114 22.2926 64.0259 20.7298 64.982C19.167 65.9538 16.9616 66.4656 14.1159 66.5333C16.078 66.7542 17.6409 67.2322 18.8044 67.9651C19.9679 68.6979 20.8881 69.7734 21.5468 71.1714C21.8428 71.8027 22.2054 72.6888 22.6575 73.832C23.6466 76.3732 24.654 77.7554 25.6776 77.9944V78.3687C25.4871 78.3687 25.2255 78.3687 24.8606 78.3506C23.6099 78.3168 22.7608 78.2988 22.2903 78.2988C21.8566 78.2988 21.4228 78.2988 20.9707 78.2988C20.5026 78.3168 20.0161 78.3168 19.5135 78.3326C19.0614 77.2909 18.506 75.7914 17.8474 73.7959C17.1865 71.8162 16.615 70.4521 16.1469 69.7012C15.4355 68.5919 14.5496 67.8072 13.5261 67.3472C12.5026 66.8873 10.9214 66.664 8.78715 66.664H8.14458C8.0918 66.664 7.88526 66.664 7.52037 66.6821C7.15548 66.7001 6.80895 66.7159 6.47849 66.7339V70.4363C6.47849 73.575 6.6529 75.5705 6.98107 76.4408C7.30924 77.3112 7.9541 77.8726 8.92484 78.1297V78.4025C7.93574 78.3687 7.06827 78.3348 6.30407 78.3168C5.52381 78.2988 4.86288 78.2988 4.30752 78.2988C3.63052 78.2988 2.95353 78.2988 2.24211 78.3168C1.53069 78.3348 0.784854 78.3687 0.00229489 78.4025V78.1297H0ZM7.49971 65.832C7.84624 65.8501 8.03901 65.8658 8.07344 65.8658C9.77395 65.8658 11.1279 65.832 12.1193 65.7802C13.1084 65.7283 13.9071 65.6268 14.5152 65.5073C15.6787 65.2864 16.6334 64.7565 17.3632 63.956C18.0929 63.1533 18.4578 62.1995 18.4578 61.1082C18.4578 59.5209 17.8153 58.3619 16.5141 57.5953C15.2129 56.8444 13.1635 56.4701 10.3844 56.4701C9.76018 56.4701 9.13368 56.4701 8.50947 56.4882C7.88526 56.5062 7.20826 56.522 6.47849 56.54V65.8027C6.80665 65.814 7.13483 65.814 7.49971 65.832Z" fill="black"></path>
  <path d="M36.5255 58.3596C38.9742 56.1251 42.0815 55 45.8841 55C49.6867 55 52.8285 56.1251 55.2932 58.3777C57.7579 60.646 58.9902 63.478 58.9902 66.9076C58.9902 70.301 57.7395 73.1669 55.2565 75.487C52.7734 77.8072 49.6844 78.9662 45.9851 78.9662C42.2008 78.9662 39.0752 77.823 36.5921 75.5209C34.1136 73.2187 32.8629 70.3529 32.8629 66.9076C32.8629 63.4622 34.0792 60.6122 36.5255 58.3596ZM39.7912 75.248C41.2668 77.2435 43.3322 78.2334 45.9897 78.2334C48.5416 78.2334 50.5726 77.2277 52.0826 75.2142C53.5927 73.2007 54.3385 70.4543 54.3385 66.9752C54.3385 63.4104 53.5927 60.646 52.117 58.6843C50.6231 56.7227 48.5416 55.7328 45.8841 55.7328C43.2266 55.7328 41.1796 56.7046 39.7384 58.6505C38.2811 60.6122 37.5513 63.3765 37.5513 66.9414C37.5513 70.4882 38.2972 73.2525 39.7912 75.248Z" fill="black"></path>
  <path d="M68.3832 71.6652L68.6265 71.699C68.9225 73.5592 69.8772 75.1105 71.5089 76.3393C73.1245 77.584 75.0338 78.1995 77.2025 78.1995C79.4079 78.1995 81.1773 77.7057 82.5336 76.6979C83.8876 75.708 84.5645 74.4115 84.5645 72.8083C84.5645 72.1251 84.4085 71.5118 84.1124 70.9842C83.8164 70.4543 83.401 70.0462 82.8617 69.7734C81.9759 69.3292 80.3787 68.9549 78.1044 68.6483C77.1842 68.5287 76.4888 68.4273 76.0207 68.3416C73.2943 67.8816 71.2978 67.1646 70.0654 66.1928C68.833 65.221 68.2088 63.8906 68.2088 62.2018C68.2088 60.0688 69.1451 58.3461 71.0384 57C72.9317 55.6652 75.4148 55 78.5221 55C80.0666 55 81.6294 55.1714 83.1738 55.4938C84.7183 55.8185 86.109 56.2965 87.3758 56.8918L86.0218 61.0361L85.6913 61.0023C85.3953 59.3653 84.5967 58.0846 83.3299 57.1646C82.0447 56.2604 80.4131 55.8005 78.4509 55.8005C76.5232 55.8005 74.926 56.2446 73.6936 57.115C72.4613 58.0011 71.8371 59.1105 71.8371 60.4408C71.8371 61.0902 72.0275 61.6855 72.3924 62.2492C72.7573 62.8129 73.2438 63.239 73.8497 63.5276C74.8732 64.0056 76.8009 64.4318 79.6305 64.8241C80.6196 64.9775 81.3655 65.0789 81.8864 65.1646C84.0918 65.5231 85.7051 66.1545 86.7653 67.0744C87.8072 68.0124 88.3282 69.2751 88.3282 70.8602C88.3282 73.2661 87.3391 75.2277 85.3425 76.7272C83.3459 78.2446 80.7252 78.9955 77.4779 78.9955C75.4469 78.9955 73.5192 78.7903 71.6971 78.398C69.8749 78.0056 68.2593 77.46 66.887 76.7272L68.3832 71.6652Z" fill="black"></path>
  <path d="M95.4814 78.1995C96.2983 77.7057 97.2002 76.7835 98.1893 75.4532C99.1624 74.1229 100.168 72.434 101.193 70.4047L109.058 55H109.336L117.512 70.2334C117.65 70.4724 117.843 70.8309 118.102 71.3089C120.202 75.2503 121.886 77.5344 123.137 78.1995V78.4047C122.46 78.3709 121.836 78.3371 121.244 78.3191C120.654 78.301 120.08 78.301 119.543 78.301C118.277 78.301 117.2 78.301 116.349 78.3191C115.481 78.3371 114.63 78.3709 113.797 78.4047L113.779 78.1995C114.387 78.0124 114.802 77.7734 115.045 77.5006C115.27 77.2277 115.392 76.8354 115.392 76.3055C115.392 75.947 115.305 75.5028 115.114 74.9752C114.924 74.4453 114.54 73.611 113.969 72.4679L111.798 67.9989C111.433 67.9808 111.087 67.9651 110.756 67.947C110.41 67.929 110.026 67.929 109.593 67.929H105.668C105.095 67.929 104.645 67.929 104.33 67.947C104 67.9651 103.706 67.9808 103.429 67.9989L102.196 70.6933C101.641 71.8703 101.223 72.876 100.945 73.7125C100.649 74.549 100.512 75.1962 100.512 75.6742C100.512 76.3055 100.686 76.8331 101.033 77.2255C101.379 77.6178 101.935 77.9425 102.717 78.1973V78.4025C102.336 78.3687 101.919 78.3348 101.45 78.3168C100.982 78.2988 100.271 78.2988 99.3505 78.2988C98.5336 78.2988 97.8405 78.2988 97.2507 78.3168C96.6609 78.3348 96.0711 78.3687 95.4791 78.4025V78.1995H95.4814ZM104.874 67.1105C105.221 67.1285 105.742 67.1285 106.419 67.1285H108.555C109.354 67.1285 109.928 67.1285 110.293 67.1105C110.657 67.0924 110.97 67.0767 111.266 67.0586L107.569 59.7057L103.867 67.0609C104.179 67.0767 104.509 67.0947 104.874 67.1105Z" fill="black"></path>
  <path d="M128.344 78.1995C129.161 77.7057 130.063 76.7835 131.052 75.4532C132.025 74.1229 133.03 72.434 134.056 70.4047L141.921 55H142.199L150.375 70.2334C150.513 70.4724 150.706 70.8309 150.965 71.3089C153.065 75.2503 154.749 77.5344 156 78.1995V78.4047C155.323 78.3709 154.699 78.3371 154.107 78.3191C153.517 78.301 152.943 78.301 152.406 78.301C151.139 78.301 150.063 78.301 149.212 78.3191C148.344 78.3371 147.493 78.3709 146.66 78.4047L146.641 78.1995C147.25 78.0124 147.665 77.7734 147.908 77.5006C148.133 77.2277 148.255 76.8354 148.255 76.3055C148.255 75.947 148.168 75.5028 147.977 74.9752C147.787 74.4453 147.403 73.611 146.832 72.4679L144.661 67.9989C144.296 67.9808 143.95 67.9651 143.619 67.947C143.273 67.929 142.889 67.929 142.456 67.929H138.531C137.958 67.929 137.508 67.929 137.193 67.947C136.863 67.9651 136.569 67.9808 136.291 67.9989L135.059 70.6933C134.504 71.8703 134.086 72.876 133.808 73.7125C133.512 74.549 133.375 75.1962 133.375 75.6742C133.375 76.3055 133.549 76.8331 133.896 77.2255C134.242 77.6178 134.797 77.9425 135.58 78.1973V78.4025C135.199 78.3687 134.781 78.3348 134.313 78.3168C133.845 78.2988 133.134 78.2988 132.213 78.2988C131.396 78.2988 130.703 78.2988 130.114 78.3168C129.524 78.3348 128.934 78.3687 128.342 78.4025V78.1995H128.344ZM137.737 67.1105C138.084 67.1285 138.605 67.1285 139.282 67.1285H141.418C142.217 67.1285 142.791 67.1285 143.155 67.1105C143.52 67.0924 143.832 67.0767 144.129 67.0586L140.431 59.7057L136.73 67.0609C137.042 67.0767 137.372 67.0947 137.737 67.1105Z" fill="black"></path>
  <path d="M13 40.8602V34.1398H17.2178V35.1948H14.0923V36.8512H16.6742V37.9062H14.0923V39.8052H17.2178V40.8602H13Z" fill="#999999"></path>
  <path d="M22.1177 41C21.6408 41 21.21 40.9156 20.828 40.7442C20.4459 40.5727 20.1306 40.3274 19.8844 40.0083C19.6383 39.6892 19.4819 39.312 19.4152 38.8715L20.5485 38.6948C20.6459 39.0931 20.8434 39.4017 21.1459 39.618C21.4459 39.8369 21.7946 39.945 22.1869 39.945C22.4202 39.945 22.6382 39.9081 22.8459 39.8342C23.051 39.7604 23.2176 39.6496 23.3458 39.5072C23.474 39.3647 23.5381 39.188 23.5381 38.9797C23.5381 38.8874 23.5228 38.8003 23.492 38.7212C23.4612 38.6421 23.4176 38.5709 23.3587 38.5102C23.2997 38.4469 23.2253 38.3915 23.133 38.3387C23.0407 38.286 22.933 38.2438 22.8125 38.2069L21.1254 37.6926C20.9792 37.6477 20.8228 37.5897 20.6562 37.5185C20.4895 37.4446 20.3305 37.3444 20.1793 37.2152C20.0306 37.0859 19.9075 36.9198 19.8126 36.7193C19.7177 36.5189 19.669 36.2709 19.669 35.9755C19.669 35.543 19.7767 35.179 19.9895 34.8862C20.2023 34.5935 20.4895 34.3719 20.851 34.2268C21.2126 34.0818 21.6126 34.0079 22.0561 34.0132C22.5048 34.0158 22.9023 34.095 23.2535 34.2479C23.6048 34.4009 23.8971 34.6251 24.133 34.9179C24.3689 35.2106 24.5355 35.5641 24.633 35.9782L23.4587 36.1892C23.4099 35.9518 23.3176 35.7513 23.1792 35.5852C23.0407 35.419 22.8741 35.2924 22.6766 35.2054C22.4792 35.1183 22.2664 35.0709 22.0433 35.0656C21.8228 35.055 21.6203 35.0893 21.4356 35.1605C21.2485 35.2317 21.0998 35.332 20.9869 35.4612C20.8741 35.5931 20.8177 35.7434 20.8177 35.9175C20.8177 36.0837 20.8664 36.2155 20.9639 36.321C21.0613 36.4239 21.1818 36.5083 21.3254 36.569C21.469 36.6296 21.6151 36.6797 21.7638 36.7193L22.933 37.0543C23.0946 37.0991 23.274 37.1571 23.4715 37.231C23.6715 37.3048 23.8638 37.4103 24.0484 37.5449C24.233 37.6794 24.3843 37.8534 24.5048 38.0724C24.6253 38.2913 24.6843 38.5682 24.6843 38.9032C24.6843 39.2513 24.615 39.5573 24.474 39.821C24.333 40.0848 24.1433 40.3037 23.9048 40.4778C23.6663 40.6519 23.392 40.7837 23.0869 40.8708C22.7741 40.9552 22.4536 41 22.1177 41Z" fill="#999999"></path>
  <path d="M28.6867 40.8602V35.1948H26.5739V34.1398H31.8943V35.1948H29.7815V40.8602H28.6867Z" fill="#999999"></path>
  <path d="M34.0686 40.8602V34.1398H36.1506C36.2044 34.1398 36.3121 34.1424 36.4762 34.1451C36.6403 34.1477 36.7942 34.1583 36.9454 34.1767C37.4634 34.2453 37.8992 34.4352 38.2582 34.7438C38.6172 35.0524 38.889 35.448 39.0736 35.9254C39.2582 36.4028 39.3505 36.9277 39.3505 37.4974C39.3505 38.0671 39.2582 38.592 39.0736 39.0693C38.889 39.5467 38.6172 39.9424 38.2582 40.251C37.8992 40.5595 37.4634 40.7495 36.9454 40.818C36.7967 40.8365 36.6403 40.847 36.4788 40.8497C36.3172 40.8523 36.207 40.855 36.1531 40.855H34.0686V40.8602ZM35.1814 39.7999H36.1531C36.2429 39.7999 36.3608 39.7973 36.4993 39.7894C36.6403 39.7841 36.7659 39.7683 36.8736 39.7472C37.1813 39.6892 37.4326 39.5467 37.6275 39.3225C37.8198 39.0984 37.9633 38.8267 38.0557 38.5049C38.148 38.1831 38.1941 37.8482 38.1941 37.4974C38.1941 37.1334 38.148 36.7905 38.0531 36.4714C37.9582 36.1522 37.8146 35.8832 37.6198 35.6643C37.4249 35.4454 37.1762 35.3082 36.8736 35.2502C36.7659 35.2265 36.6403 35.2106 36.4993 35.2054C36.3583 35.2001 36.2429 35.1975 36.1531 35.1975H35.1814V39.7999Z" fill="#999999"></path>
  <path d="M120.226 40.8602V35.3662L119 36.1364V34.8968L120.226 34.1398H121.341V40.8576H120.226V40.8602Z" fill="#999999"></path>
  <path d="M126.625 34.0106C127.051 34.0106 127.436 34.1134 127.774 34.3218C128.115 34.5275 128.384 34.815 128.584 35.1816C128.784 35.5482 128.884 35.9702 128.884 36.445V38.4891C128.884 38.9981 128.784 39.4439 128.587 39.8184C128.389 40.1956 128.11 40.4857 127.751 40.6914C127.392 40.8971 126.977 41 126.502 41C126.172 41 125.859 40.9446 125.564 40.8286C125.266 40.7151 125.005 40.5332 124.774 40.2852L125.564 39.4966C125.679 39.6364 125.818 39.7472 125.984 39.8289C126.149 39.9107 126.323 39.9503 126.505 39.9503C126.759 39.9503 126.982 39.8896 127.172 39.7656C127.361 39.6417 127.51 39.4808 127.613 39.283C127.715 39.0852 127.769 38.8715 127.769 38.6447V37.529L127.969 37.7532C127.782 37.9774 127.556 38.1515 127.292 38.2781C127.028 38.4047 126.754 38.468 126.466 38.468C126.056 38.468 125.692 38.373 125.377 38.1805C125.061 37.9879 124.815 37.7268 124.633 37.3971C124.451 37.0648 124.361 36.6876 124.361 36.2656C124.361 35.8463 124.464 35.4665 124.672 35.1236C124.879 34.7833 125.154 34.5117 125.495 34.3112C125.836 34.1108 126.215 34.0106 126.625 34.0106ZM126.625 35.0867C126.413 35.0867 126.22 35.1394 126.046 35.2423C125.872 35.3451 125.731 35.4876 125.625 35.6669C125.52 35.8463 125.469 36.0441 125.469 36.263C125.469 36.4819 125.52 36.6797 125.623 36.8591C125.725 37.0384 125.864 37.1835 126.038 37.2916C126.213 37.3998 126.405 37.4525 126.618 37.4525C126.831 37.4525 127.023 37.3998 127.197 37.2916C127.372 37.1835 127.513 37.0411 127.615 36.8591C127.718 36.6797 127.769 36.4793 127.769 36.263C127.769 36.052 127.718 35.8568 127.618 35.6775C127.515 35.4981 127.379 35.3557 127.205 35.2476C127.031 35.1394 126.838 35.0867 126.625 35.0867Z" fill="#999999"></path>
  <path d="M133.743 41C133.31 41 132.928 40.9103 132.592 40.7283C132.256 40.549 131.992 40.2984 131.802 39.9766C131.612 39.6575 131.518 39.2882 131.518 38.8768C131.518 38.5075 131.6 38.162 131.766 37.8455C131.933 37.529 132.177 37.2758 132.497 37.0859L132.474 37.4446C132.223 37.2494 132.028 37.0226 131.892 36.7668C131.753 36.5109 131.684 36.2208 131.684 35.9017C131.684 35.5166 131.774 35.1816 131.951 34.8994C132.128 34.6172 132.371 34.3956 132.679 34.24C132.987 34.0844 133.341 34 133.743 34C134.146 34 134.502 34.0791 134.812 34.2347C135.123 34.393 135.366 34.6119 135.543 34.8941C135.72 35.1763 135.807 35.5113 135.807 35.8964C135.807 36.2155 135.741 36.5057 135.61 36.7589C135.479 37.0147 135.279 37.2442 135.012 37.4499L135.007 37.0859C135.323 37.2705 135.564 37.5211 135.73 37.8402C135.897 38.1594 135.982 38.5049 135.982 38.8742C135.982 39.2882 135.887 39.6549 135.694 39.974C135.502 40.2931 135.238 40.5437 134.9 40.7257C134.566 40.9077 134.179 41 133.743 41ZM133.743 39.9397C134.064 39.9397 134.325 39.85 134.525 39.668C134.725 39.4887 134.828 39.2223 134.828 38.8742C134.828 38.526 134.728 38.2596 134.528 38.0776C134.328 37.8956 134.066 37.8033 133.743 37.8033C133.423 37.8033 133.164 37.8956 132.969 38.0776C132.771 38.2596 132.674 38.526 132.674 38.8742C132.674 39.2223 132.771 39.4861 132.969 39.668C133.164 39.85 133.423 39.9397 133.743 39.9397ZM133.743 36.7378C134.012 36.7378 134.23 36.6692 134.4 36.5294C134.566 36.3922 134.651 36.1812 134.651 35.8964C134.651 35.6115 134.566 35.4032 134.4 35.2634C134.233 35.1262 134.012 35.055 133.743 35.055C133.476 35.055 133.261 35.1236 133.092 35.2634C132.925 35.4032 132.841 35.6115 132.841 35.8964C132.841 36.1812 132.925 36.3896 133.092 36.5294C133.259 36.6692 133.476 36.7378 133.743 36.7378Z" fill="#999999"></path>
  <path d="M140.484 40.9842C140.158 40.9842 139.848 40.9182 139.558 40.789C139.269 40.6571 139.017 40.4725 138.802 40.2351C138.587 39.9977 138.435 39.7129 138.34 39.3858L139.397 39.0931C139.471 39.3595 139.61 39.5678 139.812 39.7102C140.012 39.8553 140.235 39.9265 140.476 39.9213C140.692 39.9213 140.884 39.8711 141.053 39.7683C141.222 39.6654 141.356 39.5256 141.453 39.3515C141.551 39.1748 141.599 38.9797 141.599 38.7607C141.599 38.4284 141.494 38.1488 141.286 37.9246C141.079 37.7005 140.81 37.5897 140.479 37.5897C140.379 37.5897 140.281 37.6029 140.187 37.6319C140.092 37.6609 139.999 37.6978 139.912 37.7479L139.412 36.8617L141.607 34.931L141.702 35.2027H138.594V34.1398H142.599V35.2027L140.835 36.9488L140.825 36.6164C141.22 36.6454 141.558 36.7589 141.838 36.9567C142.117 37.1545 142.333 37.413 142.481 37.7268C142.63 38.0407 142.707 38.3862 142.707 38.7581C142.707 39.1801 142.607 39.5599 142.404 39.8975C142.204 40.2325 141.935 40.4989 141.597 40.694C141.266 40.8892 140.892 40.9842 140.484 40.9842Z" fill="#999999"></path>
  <path d="M102.656 18.7264C102.813 19.3225 102.462 19.9374 101.872 20.0958C101.282 20.2543 100.673 19.8997 100.516 19.3036C100.359 18.7076 100.71 18.0927 101.301 17.9342C101.891 17.7758 102.496 18.1266 102.656 18.7264ZM56.4726 19.3036C56.3157 19.8997 55.7069 20.2543 55.1168 20.0958C54.5266 19.9374 54.1755 19.3225 54.3324 18.7264C54.4893 18.1304 55.0981 17.7758 55.6882 17.9342C56.2821 18.0927 56.6332 18.7076 56.4726 19.3036ZM58.751 13.7506C58.4447 14.2863 57.7687 14.4711 57.2383 14.1618C56.7079 13.8524 56.5249 13.1696 56.8312 12.6339C57.1374 12.0982 57.8135 11.9134 58.3439 12.2227C58.8742 12.5321 59.0572 13.2149 58.751 13.7506ZM62.374 8.98219C61.9407 9.4198 61.2385 9.4198 60.8052 8.98219C60.372 8.54459 60.372 7.83537 60.8052 7.39777C61.2385 6.96016 61.9407 6.96016 62.374 7.39777C62.8072 7.83537 62.8072 8.54459 62.374 8.98219ZM67.0951 5.32292C66.5647 5.63226 65.8886 5.44741 65.5824 4.91173C65.2761 4.37604 65.4591 3.69322 65.9895 3.38388C66.5199 3.07454 67.1959 3.25939 67.5022 3.79508C67.8084 4.33077 67.6254 5.01358 67.0951 5.32292ZM72.593 3.02173C72.0029 3.18017 71.3941 2.82556 71.2372 2.22952C71.0803 1.63347 71.4314 1.01856 72.0216 0.860118C72.6117 0.701675 73.2205 1.05629 73.3774 1.65233C73.5343 2.24838 73.1869 2.86329 72.593 3.02173ZM78.4944 0C79.1069 0 79.6037 0.501735 79.6037 1.12042C79.6037 1.7391 79.1069 2.24083 78.4944 2.24083C77.8819 2.24083 77.3851 1.7391 77.3851 1.12042C77.3851 0.501735 77.8819 0 78.4944 0ZM84.9672 0.860118C85.5574 1.01856 85.9085 1.63347 85.7516 2.22952C85.5947 2.82556 84.9859 3.18017 84.3958 3.02173C83.8056 2.86329 83.4545 2.24838 83.6114 1.65233C83.7683 1.05629 84.3771 0.701675 84.9672 0.860118ZM91.003 3.38388C91.5334 3.69322 91.7164 4.37604 91.4102 4.91173C91.1039 5.44741 90.4279 5.63226 89.8975 5.32292C89.3671 5.01358 89.1841 4.33077 89.4904 3.79508C89.7929 3.25939 90.4727 3.07454 91.003 3.38388ZM96.1836 7.40154C96.6168 7.83914 96.6168 8.54836 96.1836 8.98597C95.7503 9.42357 95.0481 9.42357 94.6148 8.98597C94.1816 8.54836 94.1816 7.83914 94.6148 7.40154C95.0481 6.96394 95.7503 6.96394 96.1836 7.40154ZM100.158 12.6339C100.464 13.1696 100.281 13.8524 99.7505 14.1618C99.2201 14.4711 98.5441 14.2863 98.2378 13.7506C97.9315 13.2149 98.1146 12.5321 98.6449 12.2227C99.1716 11.9134 99.8514 12.0982 100.158 12.6339Z" fill="#E2809F"></path>
  <path d="M89.0496 31.9149C89.5053 30.5757 89.834 29.2176 90.017 27.8482C87.6303 28.9309 85.0755 29.9155 82.913 31.4056C84.6908 35.1366 84.3958 38.8901 82.6216 42.5947C85.3034 39.4636 87.705 35.8571 89.0496 31.9149ZM74.3634 42.5947C73.0674 39.8898 72.6939 37.4415 72.9516 35.2196C73.1122 33.8615 73.5044 32.5939 74.0721 31.4056C72.3839 30.2437 70.3371 29.3383 68.3687 28.4707C67.8944 28.2632 67.4275 28.0557 66.9681 27.8482C67.1511 29.2214 67.4798 30.5794 67.9354 31.9149C69.2838 35.8571 71.6854 39.4636 74.3634 42.5947ZM68.9588 36.9926C66.6655 36.2457 64.3386 35.4648 62.2171 34.4915C62.7176 35.8797 63.375 37.1397 64.163 38.2866C66.9531 42.3344 71.409 44.9638 76.4102 46.5256C73.4035 43.5152 70.8338 40.3237 68.9588 36.9926ZM60.7492 33.7672C58.7398 32.6958 56.8162 31.3038 55.5276 29.3798C56.3755 34.2349 58.6949 38.577 62.0042 41.9194C66.2248 46.1823 72.0552 48.8192 78.4981 48.8192C89.8078 48.8192 99.504 40.6066 101.465 29.3836C100.176 31.3038 98.2528 32.6958 96.2433 33.7709C93.8604 41.9986 86.5434 46.3483 78.6699 48.2835C78.5579 48.3175 78.4384 48.3175 78.3301 48.2835C72.2009 46.7783 66.5834 43.8622 63.2106 38.9656C62.1461 37.4264 61.3095 35.7024 60.7492 33.7672ZM55.1691 25.2226C55.6247 28.4442 57.7014 30.5945 60.3682 32.1978C59.793 29.3345 59.7856 26.0601 60.4915 22.3216C60.6073 21.7104 61.4589 21.6802 61.627 22.2687C62.1461 23.7853 63.6887 24.8981 65.6384 25.9054C65.5487 22.9365 66.1202 19.9072 67.4947 16.8402C67.73 16.3121 68.4994 16.4139 68.604 16.976C68.7049 17.4966 69.2128 18.1077 69.9748 18.8056C70.6023 19.3828 71.4053 20.0091 72.3017 20.6843C72.7126 18.734 74.3448 16.2592 78.0873 12.4793C78.3151 12.2491 78.6886 12.2491 78.9165 12.4793C82.659 16.2592 84.2912 18.734 84.702 20.6843C85.6507 19.9676 88.1794 18.1304 88.3997 16.9722C88.508 16.4026 89.2737 16.3196 89.509 16.8402C90.7939 19.7073 91.4587 22.7554 91.3653 25.9054C93.3225 24.8944 94.8726 23.774 95.3843 22.2461C95.5747 21.6727 96.4002 21.7331 96.5122 22.3216C97.2182 26.0601 97.2107 29.3383 96.6355 32.1978C99.3023 30.5945 101.379 28.4442 101.831 25.2226C101.883 24.4719 103 24.5096 103 25.2641C103 38.9279 92.0339 50 78.5056 50C71.7414 50 65.616 47.231 61.1862 42.7531C56.7415 38.279 54 32.096 54 25.2641C54 24.5096 55.1205 24.4756 55.1691 25.2226ZM61.7465 32.9561C63.7111 33.9482 65.9335 34.7518 68.1707 35.4912C67.6516 34.4387 67.2034 33.3711 66.8373 32.2959C66.2733 30.6436 65.8924 28.9611 65.728 27.2597C63.9315 26.3845 62.3665 25.4338 61.3767 24.1814C60.921 27.5124 61.0854 30.421 61.7465 32.9561ZM88.8181 35.4949C91.0553 34.7518 93.2777 33.952 95.2423 32.9599C95.8997 30.4248 96.0678 27.5162 95.6158 24.1889C94.626 25.4414 93.0573 26.392 91.2645 27.2672C91.0964 28.9686 90.7192 30.6474 90.1552 32.3035C89.7854 33.3748 89.3372 34.4424 88.8181 35.4949ZM94.768 34.4915C92.6465 35.4648 90.3195 36.2494 88.0262 36.9926C86.1512 40.3237 83.5853 43.5114 80.5711 46.5256C86.8086 44.579 92.4672 40.8895 94.768 34.4915ZM78.9053 26.0563C79.4356 26.5731 79.9473 27.1126 80.4254 27.6709C80.8811 26.9126 81.3405 26.2525 81.7738 25.6338C83.9476 22.5177 85.2399 20.6692 78.4944 13.7317C71.7489 20.6692 73.0375 22.5215 75.215 25.6375C75.6446 26.2525 76.1077 26.9164 76.5634 27.6747C77.0452 27.1126 77.5606 26.5731 78.091 26.0525C78.3226 25.8299 78.6774 25.8262 78.9053 26.0563ZM81.2172 28.6442C81.6318 29.1912 82.0128 29.7571 82.3564 30.3418C84.7618 28.731 87.5407 27.7048 90.1552 26.4863C90.3195 23.8645 89.9423 21.1936 88.9152 18.485C87.9254 19.8129 86.1027 21.0955 84.7879 22.0839C84.6535 23.5702 83.7832 24.8189 82.7374 26.3166C82.2406 27.0183 81.7103 27.7803 81.2172 28.6442ZM72.2046 22.0839C71.0467 21.2162 70.0009 20.424 69.1867 19.6733C68.7422 19.2659 68.3687 18.8735 68.0774 18.485C67.0502 21.1936 66.673 23.8683 66.8373 26.4863C67.4835 26.7881 68.1558 27.0862 68.8393 27.3842C70.8301 28.2632 72.8918 29.1723 74.6361 30.3418C74.9797 29.7533 75.3607 29.1874 75.7753 28.6442C75.2823 27.7803 74.7482 27.0183 74.2589 26.3166C73.2093 24.8189 72.3391 23.5702 72.2046 22.0839ZM81.9605 32.1262C80.1154 33.6615 79.0547 35.5327 79.0808 37.9885C79.0808 40.6783 79.0808 43.368 79.0845 46.054C82.2481 41.9232 84.2314 37.136 81.9605 32.1262ZM77.9117 37.9885C77.9379 35.4157 76.7688 33.571 75.032 32.1262C74.5726 33.1409 74.2514 34.2123 74.1207 35.3516C73.7658 38.3846 74.7332 41.9119 77.9117 46.0578C77.908 43.368 77.9117 40.6783 77.9117 37.9885ZM81.4003 31.0359C80.6271 29.6854 79.6149 28.4442 78.4944 27.3012C77.3739 28.4442 76.3617 29.6816 75.5885 31.0359C76.8584 32.0432 77.8931 33.2352 78.4944 34.7291C79.0995 33.239 80.1303 32.0432 81.4003 31.0359Z" fill="#E2809F"></path>
</svg>
